<svg width="166" height="34" viewBox="0 0 166 34" fill="none" xmlns="http://www.w3.org/2000/svg">
<g clip-path="url(#clip0_858_2200)">
<path d="M46.5928 13.2628C46.0727 13.2628 45.6826 13.3928 45.4659 13.6095C45.2492 13.8262 45.1191 14.173 45.0758 14.6931H46.9395V17.3369H45.0758V24.3583C45.0758 24.7051 44.8157 24.9651 44.469 24.9651H42.5186C42.1719 24.9651 41.9118 24.7051 41.9118 24.3583V17.2936H40.6982V14.6497H41.9118V14.5197C41.9118 13.2628 42.3019 12.2659 43.0387 11.5724C43.7755 10.879 44.8591 10.5322 46.2894 10.5322C46.5928 10.5322 46.8095 10.5322 46.9395 10.5322V13.2194L46.5928 13.2628Z" fill="#064149"/>
<path d="M54.2646 15.083C54.828 15.4297 55.2615 15.9065 55.5215 16.5566V14.6929H58.0354C58.3821 14.6929 58.6422 14.953 58.6422 15.2997V24.3582C58.6422 24.7049 58.3821 24.965 58.0354 24.965H55.5215V23.1013C55.2615 23.708 54.828 24.1848 54.2646 24.5749C53.7012 24.9216 53.0077 25.095 52.2275 25.095C51.3607 25.095 50.6239 24.8783 49.9737 24.4449C49.3236 24.0114 48.7602 23.4046 48.3701 22.6245C47.98 21.8443 47.8066 20.8908 47.8066 19.8073C47.8066 18.7237 47.98 17.7702 48.3701 16.99C48.7602 16.2099 49.2803 15.6031 49.9737 15.1697C50.6239 14.7362 51.404 14.5195 52.2275 14.5195C53.0077 14.5195 53.7012 14.6929 54.2646 15.083ZM51.6207 17.9436C51.2307 18.377 51.0139 18.9838 51.0139 19.7639C51.0139 20.5441 51.2307 21.1509 51.6207 21.5843C52.0108 22.0177 52.5743 22.2344 53.2677 22.2344C53.9179 22.2344 54.4813 22.0177 54.9147 21.5409C55.3482 21.1075 55.5649 20.5007 55.5649 19.7206C55.5649 18.9404 55.3482 18.3336 54.9147 17.9002C54.4813 17.4668 53.9612 17.2067 53.2677 17.2067C52.5743 17.2934 52.0108 17.5101 51.6207 17.9436Z" fill="#064149"/>
<path d="M61.026 10.5754C61.3727 10.272 61.8061 10.0986 62.3696 10.0986C62.933 10.0986 63.3664 10.272 63.7132 10.5754C64.0599 10.8788 64.2333 11.2689 64.2333 11.7456C64.2333 12.2224 64.0599 12.6125 63.7132 12.9159C63.3664 13.2193 62.933 13.3926 62.3696 13.3926C61.8061 13.3926 61.3294 13.2193 61.026 12.9159C60.6792 12.6125 60.5059 12.2224 60.5059 11.7456C60.5059 11.3122 60.6792 10.8788 61.026 10.5754ZM63.9299 15.2563V24.3148C63.9299 24.6616 63.6698 24.9216 63.3231 24.9216H61.3727C61.026 24.9216 60.7659 24.6616 60.7659 24.3148V15.2563C60.7659 14.9096 61.026 14.6495 61.3727 14.6495H63.3231C63.6698 14.6495 63.9299 14.9096 63.9299 15.2563Z" fill="#064149"/>
<path d="M71.9477 22.2344V24.9216H70.5174C69.3039 24.9216 68.3937 24.6182 67.7002 24.0115C67.0501 23.4047 66.7033 22.4511 66.7033 21.0642V17.2934H65.3164V14.6496H66.7033V12.7425C66.7033 12.3958 66.9634 12.1357 67.3101 12.1357H69.2605C69.6073 12.1357 69.8673 12.3958 69.8673 12.7425V14.6496H71.9477V17.2934H69.8673V21.1075C69.8673 21.4976 69.954 21.801 70.1274 21.9744C70.3007 22.1478 70.5608 22.2344 70.9509 22.2344H71.9477Z" fill="#064149"/>
<path d="M83.0435 15.7334C83.737 16.5135 84.0837 17.5971 84.0837 18.984V24.3585C84.0837 24.7052 83.8237 24.9652 83.4769 24.9652H81.5265C81.1798 24.9652 80.9198 24.7052 80.9198 24.3585V19.3308C80.9198 18.6373 80.7464 18.1172 80.3563 17.7271C79.9662 17.337 79.5328 17.1637 78.926 17.1637C78.2759 17.1637 77.7991 17.3804 77.4091 17.7705C77.019 18.1605 76.8456 18.7673 76.8456 19.5041V24.3585C76.8456 24.7052 76.5856 24.9652 76.2388 24.9652H74.2884C73.9417 24.9652 73.6816 24.7052 73.6816 24.3585V11.9193C73.6816 11.5726 73.9417 11.3125 74.2884 11.3125H76.2388C76.5856 11.3125 76.8456 11.5726 76.8456 11.9193V16.5569C77.149 15.9501 77.5824 15.4733 78.1459 15.0833C78.7093 14.7365 79.4028 14.5632 80.1829 14.5632C81.3965 14.5632 82.35 14.9532 83.0435 15.7334Z" fill="#064149"/>
<path d="M88.1582 27.1321H88.9384C89.2851 27.1321 89.5018 27.0454 89.6752 26.9153C89.8052 26.7853 89.8919 26.5253 89.8919 26.2219V15.2563C89.8919 14.9096 90.1519 14.6495 90.4987 14.6495H92.4491C92.7958 14.6495 93.0559 14.9096 93.0559 15.2563V25.5717C93.0559 27.9122 91.1488 29.8626 88.765 29.8626C88.4183 29.8626 88.1582 29.6025 88.1582 29.2558V27.1321ZM90.0653 12.9159C89.7185 12.6125 89.5452 12.2224 89.5452 11.7456C89.5452 11.2689 89.7185 10.8788 90.0653 10.5754C90.412 10.272 90.8454 10.0986 91.4089 10.0986C91.9723 10.0986 92.4057 10.272 92.7525 10.5754C93.0992 10.8788 93.2726 11.2689 93.2726 11.7456C93.2726 12.2224 93.0992 12.6125 92.7525 12.9159C92.4057 13.2193 91.9723 13.3926 91.4089 13.3926C90.8454 13.3926 90.412 13.2626 90.0653 12.9159Z" fill="#064149"/>
<path d="M102.678 15.1697C103.501 15.6031 104.108 16.2099 104.585 16.99C105.062 17.7702 105.278 18.7237 105.278 19.8073C105.278 20.8908 105.062 21.801 104.585 22.6245C104.108 23.4046 103.501 24.0114 102.678 24.4449C101.854 24.8783 100.944 25.095 99.9473 25.095C98.9504 25.095 97.9969 24.8783 97.2167 24.4449C96.3932 24.0114 95.7864 23.4046 95.3097 22.6245C94.8329 21.8443 94.6162 20.8908 94.6162 19.8073C94.6162 18.7237 94.8329 17.8135 95.3097 16.99C95.7864 16.2099 96.3932 15.6031 97.2167 15.1697C98.0402 14.7362 98.9504 14.5195 99.9473 14.5195C100.988 14.5195 101.898 14.7362 102.678 15.1697ZM98.4303 17.9002C97.9969 18.3336 97.8235 18.9838 97.8235 19.8073C97.8235 20.6308 98.0402 21.2375 98.4303 21.671C98.8204 22.1044 99.3405 22.3211 99.9473 22.3211C100.554 22.3211 101.074 22.1044 101.464 21.671C101.854 21.2375 102.071 20.6308 102.071 19.8073C102.071 18.9838 101.854 18.377 101.464 17.9002C101.074 17.4668 100.554 17.2501 99.9473 17.2501C99.3838 17.2501 98.8637 17.4668 98.4303 17.9002Z" fill="#064149"/>
<path d="M117.154 15.2562V24.3147C117.154 24.6614 116.894 24.9215 116.547 24.9215H113.99V23.0578C113.686 23.6646 113.253 24.1413 112.689 24.4881C112.126 24.8348 111.433 25.0082 110.652 25.0082C109.482 25.0082 108.529 24.6181 107.835 23.8379C107.142 23.0578 106.795 21.9742 106.795 20.5873V15.2562C106.795 14.9095 107.055 14.6494 107.402 14.6494H109.309C109.655 14.6494 109.916 14.9095 109.916 15.2562V20.2405C109.916 20.934 110.089 21.4975 110.479 21.8875C110.826 22.2776 111.346 22.451 111.953 22.451C112.603 22.451 113.08 22.2343 113.47 21.8442C113.86 21.4541 114.033 20.8473 114.033 20.1105V15.2562C114.033 14.9095 114.293 14.6494 114.64 14.6494H116.59C116.85 14.6494 117.154 14.9095 117.154 15.2562Z" fill="#064149"/>
<path d="M123.959 15.083C124.565 14.6929 125.259 14.5195 125.952 14.5195V17.9002H125.042C124.219 17.9002 123.569 18.0736 123.092 18.4203C122.615 18.7671 122.398 19.3738 122.398 20.2407V24.3148C122.398 24.6616 122.138 24.9216 121.792 24.9216H119.841C119.494 24.9216 119.234 24.6616 119.234 24.3148V15.2563C119.234 14.9096 119.494 14.6496 119.841 14.6496H122.398V16.5999C122.832 15.9498 123.352 15.4731 123.959 15.083Z" fill="#064149"/>
<path d="M136.614 15.7331C137.307 16.5133 137.654 17.5968 137.654 18.9838V24.3582C137.654 24.7049 137.394 24.965 137.047 24.965H135.097C134.75 24.965 134.49 24.7049 134.49 24.3582V19.3305C134.49 18.637 134.317 18.1169 133.927 17.7268C133.58 17.3368 133.103 17.1634 132.496 17.1634C131.846 17.1634 131.369 17.3801 130.979 17.7702C130.589 18.1603 130.416 18.7671 130.416 19.5039V24.3582C130.416 24.7049 130.156 24.965 129.809 24.965H127.859C127.512 24.965 127.252 24.7049 127.252 24.3582V15.2563C127.252 14.9096 127.512 14.6496 127.859 14.6496H130.416V16.5133C130.719 15.9065 131.153 15.4297 131.716 15.0396C132.28 14.6929 132.973 14.5195 133.753 14.5195C135.01 14.5629 135.92 14.953 136.614 15.7331Z" fill="#064149"/>
<path d="M145.672 15.083C146.236 15.4297 146.669 15.9065 146.929 16.5566V14.6929H149.443C149.79 14.6929 150.05 14.953 150.05 15.2997V24.3582C150.05 24.7049 149.79 24.965 149.443 24.965H146.929V23.1013C146.669 23.708 146.236 24.1848 145.672 24.5749C145.109 24.9216 144.416 25.095 143.635 25.095C142.769 25.095 142.032 24.8783 141.382 24.4449C140.731 24.0114 140.168 23.4046 139.821 22.6245C139.431 21.8443 139.258 20.8908 139.258 19.8073C139.258 18.7237 139.431 17.7702 139.821 16.99C140.211 16.2099 140.731 15.6031 141.382 15.1697C142.032 14.7362 142.812 14.5195 143.635 14.5195C144.459 14.5195 145.109 14.6929 145.672 15.083ZM143.029 17.9436C142.638 18.377 142.422 18.9838 142.422 19.7639C142.422 20.5441 142.638 21.1509 143.029 21.5843C143.462 22.0177 143.982 22.2344 144.676 22.2344C145.326 22.2344 145.889 22.0177 146.323 21.5409C146.756 21.1075 146.973 20.5007 146.973 19.7206C146.973 18.9404 146.756 18.3336 146.323 17.9002C145.889 17.4668 145.369 17.2067 144.676 17.2067C143.982 17.2934 143.462 17.5101 143.029 17.9436Z" fill="#064149"/>
<path d="M155.382 11.9193V24.3151C155.382 24.6618 155.122 24.9219 154.775 24.9219H152.825C152.478 24.9219 152.218 24.6618 152.218 24.3151V11.9193C152.218 11.5726 152.478 11.3125 152.825 11.3125H154.775C155.122 11.3125 155.382 11.5726 155.382 11.9193Z" fill="#064149"/>
<path d="M164.397 15.5162C165.177 16.1663 165.653 17.0331 165.87 18.0733H162.923C162.836 17.6399 162.663 17.3365 162.359 17.0765C162.056 16.8598 161.666 16.7297 161.233 16.7297C160.886 16.7297 160.626 16.8164 160.409 16.9465C160.236 17.1198 160.149 17.3365 160.149 17.5966C160.149 17.9 160.322 18.16 160.669 18.3334C161.016 18.5068 161.536 18.6368 162.273 18.8102C163.053 18.9835 163.703 19.2002 164.223 19.3736C164.743 19.547 165.177 19.8937 165.523 20.2838C165.914 20.7172 166.087 21.2807 166.087 22.0175C166.087 22.6243 165.914 23.1444 165.61 23.5778C165.307 24.0112 164.83 24.4013 164.223 24.6613C163.616 24.9214 162.923 25.0514 162.099 25.0514C160.712 25.0514 159.586 24.748 158.762 24.1412C157.939 23.5344 157.418 22.6676 157.245 21.4974H160.279C160.322 21.9308 160.496 22.2775 160.843 22.4942C161.146 22.7109 161.579 22.841 162.099 22.841C162.446 22.841 162.706 22.7543 162.923 22.5809C163.096 22.4076 163.183 22.1908 163.183 21.9308C163.183 21.5841 163.01 21.324 162.663 21.1506C162.316 20.9773 161.796 20.8472 161.016 20.6739C160.236 20.5005 159.629 20.3271 159.152 20.1538C158.675 19.9804 158.242 19.677 157.895 19.2436C157.549 18.8535 157.375 18.2901 157.375 17.5532C157.375 16.6431 157.722 15.9062 158.415 15.2995C159.109 14.736 160.106 14.4326 161.363 14.4326C162.576 14.5193 163.616 14.866 164.397 15.5162Z" fill="#064149"/>
<path d="M24.2282 12.1358C24.2282 5.4611 18.8104 0 12.0924 0C5.37441 0 0 5.41775 0 12.1358V33.5034H24.2282V12.1358Z" fill="#FD7D73"/>
<path d="M20.3704 14.3893V28.9089H3.90039V14.3893C3.90039 9.83837 7.58446 6.1543 12.1354 6.1543C16.6863 6.1543 20.3704 9.88171 20.3704 14.3893Z" fill="#F3CAAA"/>
<path opacity="0.6" d="M0 33.5034L3.90078 28.9092H20.3708L24.2282 33.5034H0Z" fill="#F3CAAA"/>
<path d="M20.3702 24.6615V28.909H14.8225C13.4355 26.3085 12.3086 23.4913 12.8287 20.5007C12.8287 19.2871 12.742 17.9869 12.6554 16.7299C12.5687 14.9529 12.4387 13.0892 12.5687 11.3555L12.612 11.0088L12.9154 11.1822C15.3859 12.6558 15.4726 15.213 15.5593 17.6835C15.6893 20.284 15.776 22.7545 18.5065 23.9247C18.8099 24.1414 19.1567 24.2715 19.5467 24.3581C19.8501 24.4448 20.1102 24.5315 20.3702 24.6615Z" fill="white"/>
<path d="M11.5286 16.7299C11.4419 17.9869 11.3986 19.2871 11.3552 20.5007C11.8753 23.4913 10.7484 26.3085 9.36149 28.909H3.90039V24.6615C4.16044 24.5315 4.4205 24.4448 4.68055 24.3581C5.07063 24.2715 5.41736 24.1414 5.72076 23.9247C8.4513 22.7545 8.53799 20.284 8.66801 17.6835C8.7547 15.213 8.88473 12.6558 11.3119 11.1822L11.6153 11.0088L11.6586 11.3555C11.7453 13.1325 11.6153 14.9963 11.5286 16.7299Z" fill="white"/>
</g>
<defs>
<clipPath id="clip0_858_2200">
<rect width="166" height="33.5034" fill="white"/>
</clipPath>
</defs>
</svg>
